<?xml version='1.0' encoding='utf-8'?>
<svg xmlns="http://www.w3.org/2000/svg" version="1.1" id="Layer_1" x="0px" y="0px" width="864px" height="864px" viewBox="0 0 864 864" enable-background="new 0 0 864 864"> <metadata/> <g> <path d="M787.6381,525.2476c-36.1141-30.6848-126.7291-27.4442-181.5885-22.1321c-10.2266-16.3102-18.8575-42.4187-18.8575-84.6912 c0-12.106,0-101.5758,0-101.5758s37.3666,2.1055,37.3666,22.1049s-6.3148,29.9983-10.5257,32.1038s-37.3665,25.789-11.5792,49.9977 c25.7891,24.2104,63.6824,54.2086,102.1025,69.472c12.6311,5.2628,51.0495,8.4202,55.7872-31.5786 c1.0519-12.1043,5.7896-40.5239,12.1043-52.1032c6.3164-11.5792,18.9475-104.2063-73.1544-128.4167 c-23.1584-4.211-87.3659-15.2617-125.786-26.3141c-38.4184-11.0524-85.7855-17.3689-113.6799-17.3689c-1.2133,0-5.9952,0-7.2086,0 c-27.8945,0-75.2616,6.3164-113.68,17.3689c-38.4201,11.0525-102.6292,22.1032-125.786,26.3141 c-37.2068,9.7796-57.1467,30.7477-67.4905,53.0055c-16.8998,0.1411-42.6905,3.4004-61.5735,19.6935 c-15.3075,13.214-23.0837,32.3552-23.0837,56.8936c0,34.1905,14.1384,65.1727,40.9198,89.6023 c36.7887,33.5533,93.0331,50.4854,155.3016,47.6781c0,0.0578-0.034,0.1071-0.034,0.1649v69.4941 c0,8.6819,7.1032,15.7851,15.7834,15.7851h57.6718c8.6819,0,15.785-7.1032,15.785-15.7851c0-8.6802,7.1015-15.7834,15.7834-15.7834 h59.9302h68.1533H550.23c8.6802,0,15.7834,7.1032,15.7834,15.7834c0,8.6819,7.1032,15.7851,15.785,15.7851h57.6701 c8.6819,0,15.7851-7.1032,15.7851-15.7851v-8.1584c18.7759,3.8643,43.7968,7.8305,68.1362,7.8305 c23.7634,0,46.684-3.8065,61.8828-15.1989c12.4527-9.3259,18.7606-22.6351,18.7606-39.5468 C804.0333,546.1425,798.5138,534.4919,787.6381,525.2476z M734.4746,474.3084c7.8611,1.6382,5.5993,9.4075-0.056,9.8425 c-22.6215,1.3051-46.983-9.1356-75.2599-28.2769c-28.2768-19.1413-51.2738-43.3261-53.9604-48.2797 c-2.6866-4.9518-4.2806-12.1723-1.5107-14.271c2.7699-2.0987,7.9478,3.781,7.9478,3.781s29.8147,25.1246,54.7081,44.1214 C691.2386,460.2244,726.6135,472.672,734.4746,474.3084z M677.9176,375.8254c1.0927-1.3102,7.4244-6.7701,12.4476-4.3673 c5.0215,2.4012,3.7113,11.1374,2.8379,14.6312c-0.8735,3.4938-6.5509,3.2746-6.5509,3.2746s-6.5509-4.1481-9.1713-6.9877 C674.8605,379.5385,676.8266,377.1356,677.9176,375.8254z M660.0118,399.4088c2.8379-6.9877,7.2051-15.2855,18.7793-6.3317 c0,0,5.4599,2.6204,3.2763,8.7346c-2.1837,6.1142-5.0233,12.2284-5.0233,12.2284s-3.7113,4.3673-8.7346,1.9644 C663.2864,413.6032,657.1722,406.3964,660.0118,399.4088z M598.2548,514.6029l12.1808,10.4407H507.7791H404.6673H302.0108 l12.1809-10.4407h78.2948H519.96H598.2548z M358.1924,407.9445c0-42.1485,43.8903-76.3169,98.0309-76.3169 s98.0309,34.1684,98.0309,76.3169s-43.8903,76.3152-98.0309,76.3152S358.1924,450.093,358.1924,407.9445z M561.6564,286.1756 c4.2993,0.644,19.1463,2.9908,18.6977,8.0769s-12.1162,6.5815-18.5482,6.1329c-6.4337-0.4486-20.1948-3.2899-20.3444-8.6751 C541.312,286.3251,558.6638,285.727,561.6564,286.1756z M460.9287,308.5744c22.3683,0.7902,55.5748,4.2433,80.9628,9.4092 c1.876,0.3806,3.0995,2.2295,2.6917,4.1056c-0.3262,1.6449-1.7673,2.7869-3.3986,2.7869c-0.2175,0-0.4622-0.0272-0.707-0.068 c-26.868-5.4735-62.4877-8.9538-84.2544-9.3667c-21.7667,0.4129-57.3863,3.8932-84.2544,9.3667 c-0.2447,0.0408-0.4894,0.068-0.7069,0.068c-1.6313,0-3.0724-1.142-3.3987-2.7869c-0.4078-1.8761,0.8157-3.7249,2.6917-4.1056 c25.388-5.166,58.5945-8.619,80.9628-9.4092C451.6775,308.5524,460.7689,308.5524,460.9287,308.5744z M350.7901,286.1756 c2.9925-0.4486,20.3444,0.1495,20.1948,5.5347c-0.1495,5.3852-13.9107,8.2264-20.3444,8.6751 c-6.4319,0.4486-18.0995-1.0468-18.5482-6.1329C331.6438,289.1664,346.4908,286.8196,350.7901,286.1756z M252.4347,399.4088 c2.8396,6.9876-3.2746,14.1945-8.2978,16.5956c-5.0232,2.4029-8.7345-1.9644-8.7345-1.9644s-2.8396-6.1142-5.0232-12.2284 c-2.1836-6.1142,3.2763-8.7346,3.2763-8.7346C245.2278,384.1233,249.5968,392.4211,252.4347,399.4088z M222.0813,371.4582 c5.0232-2.4029,11.3549,3.0571,12.4476,4.3673c1.091,1.3102,3.0571,3.713,0.4367,6.5509 c-2.6204,2.8396-9.1713,6.9877-9.1713,6.9877s-5.6775,0.2192-6.5509-3.2746C218.3699,382.5956,217.0598,373.8593,222.0813,371.4582 z M177.9718,474.3084c7.8611-1.6364,43.236-14.084,68.1295-33.0826c24.8952-18.9968,54.7099-44.1214,54.7099-44.1214 s5.1779-5.8797,7.9478-3.781c2.7699,2.0987,1.1743,9.3192-1.5107,14.271c-2.6866,4.9536-25.6837,29.1384-53.9606,48.2797 c-28.2767,19.1413-52.6383,29.5819-75.2598,28.2769C172.3725,483.7159,170.1107,475.9466,177.9718,474.3084z M111.3055,487.3321 c-23.7906-21.7242-36.3792-49.1446-36.3792-79.3112c0-20.2832,6.1176-35.8626,18.2168-46.3169 c13.7442-11.8885,32.6696-15.3008,47.0952-16.0502c-8.2468,28.2599-3.4632,55.2826-0.2396,61.1912 c6.3147,11.5793,11.0524,39.9988,12.1043,52.1032c4.7377,39.9988,43.1561,36.8415,55.7872,31.5786 c38.4201-15.2634,76.3134-45.2617,102.1025-69.472c25.7873-24.2086-7.3683-47.8922-11.5792-49.9977 c-4.2109-2.1055-10.5257-12.1043-10.5257-32.1038s37.3665-22.1049,37.3665-22.1049s0,89.4697,0,101.5758 c0,104.2063-52.2781,111.2568-52.2781,111.2568c-2.0817,0-4.0529,0.4537-5.8763,1.1946 C203.8509,536.0179,147.3873,520.2549,111.3055,487.3321z M515.1746,542.0097H397.2718H271.1239l12.1808-9.1356H385.091h142.2644 h101.7864l12.1808,9.1356H515.1746z M776.9255,588.2995c-27.055,20.2577-87.0974,11.5537-121.6719,4.2398v-47.0731 c0-8.6819-7.1032-15.7851-15.7851-15.7851c0,0-11.0881-1.628-23.0463-13.4094c53.1669-4.5542,131.8645-6.1855,162.2162,19.5933 c7.7217,6.5662,11.4739,14.424,11.4739,24.0217C790.1124,572.353,785.7892,581.6381,776.9255,588.2995z"/> <path d="M544.7837,407.9394c0-36.8551-39.7235-66.8313-88.5554-66.8313s-88.5826,29.9762-88.5826,66.8313 s39.7507,66.8448,88.5826,66.8448S544.7837,444.7945,544.7837,407.9394z M531.444,407.9479 c0,5.7471-6.1974,10.4203-13.8121,10.4203s-13.8104-4.6732-13.8104-10.4203s6.1957-10.4237,13.8104-10.4237 S531.444,402.2007,531.444,407.9479z M498.6521,365.9591c7.6147,0,13.8138,4.6732,13.8138,10.4203s-6.1991,10.4237-13.8138,10.4237 c-7.6147,0-13.8087-4.6765-13.8087-10.4237S491.0374,365.9591,498.6521,365.9591z M498.6521,429.0892 c7.6147,0,13.8138,4.6766,13.8138,10.4237s-6.1991,10.4203-13.8138,10.4203c-7.6147,0-13.8087-4.6732-13.8087-10.4203 S491.0374,429.0892,498.6521,429.0892z M456.2164,353.4045c7.6147,0,13.8087,4.6749,13.8087,10.422 s-6.1941,10.4237-13.8087,10.4237s-13.8121-4.6765-13.8121-10.4237S448.6017,353.4045,456.2164,353.4045z M380.9872,407.9479 c0-5.7471,6.1941-10.4237,13.8087-10.4237s13.8138,4.6766,13.8138,10.4237s-6.1992,10.4203-13.8138,10.4203 S380.9872,413.695,380.9872,407.9479z M413.7774,449.9332c-7.6147,0-13.8138-4.6732-13.8138-10.4203 s6.1992-10.4237,13.8138-10.4237s13.8087,4.6766,13.8087,10.4237S421.3921,449.9332,413.7774,449.9332z M413.7774,386.8031 c-7.6147,0-13.8138-4.6765-13.8138-10.4237s6.1992-10.4203,13.8138-10.4203s13.8087,4.6732,13.8087,10.4203 S421.3921,386.8031,413.7774,386.8031z M456.2181,393.3574c10.6582,0,19.3282,6.5424,19.3282,14.5871 c0,8.0446-8.67,14.5904-19.3282,14.5904c-10.6582,0-19.335-6.5458-19.335-14.5904 C436.8832,399.8998,445.5599,393.3574,456.2181,393.3574z M442.4043,452.0659c0-5.7471,6.194-10.4237,13.8087-10.4237 c7.6147,0,13.8121,4.6766,13.8121,10.4237s-6.1974,10.422-13.8121,10.422C448.5983,462.4879,442.4043,457.813,442.4043,452.0659z"/> </g> </svg>